<svg xmlns="http://www.w3.org/2000/svg" xmlns:xlink="http://www.w3.org/1999/xlink" width="1024" zoomAndPan="magnify" viewBox="0 0 768 576" height="768" preserveAspectRatio="xMidYMid meet" version="1.0"><defs><g/><clipPath id="id1"><path d="M 492.878906 223.023438 L 519.203125 223.023438 L 519.203125 249.347656 L 492.878906 249.347656 Z M 492.878906 223.023438 " clip-rule="nonzero"/></clipPath></defs><rect x="-76.8" width="921.6" fill="rgb(100%, 100%, 100%)" y="-57.6" height="691.2" fill-opacity="1"/><rect x="-76.8" width="921.6" fill="rgb(0%, 0%, 0%)" y="-57.6" height="691.2" fill-opacity="1"/><rect x="-76.8" width="921.6" fill="rgb(100%, 100%, 100%)" y="-57.6" height="691.2" fill-opacity="1"/><rect x="-76.8" width="921.6" fill="rgb(0%, 0%, 0%)" y="-57.6" height="691.2" fill-opacity="1"/><path fill="rgb(32.939148%, 90.19928%, 71.369934%)" d="M 297.703125 273.832031 L 297.703125 240.816406 L 309.546875 240.816406 L 309.546875 273.832031 C 309.546875 278.878906 308.039062 282.800781 305.050781 285.570312 C 302.035156 288.367188 298.167969 289.738281 293.425781 289.738281 C 288.734375 289.738281 284.894531 288.367188 281.90625 285.570312 C 278.890625 282.800781 277.410156 278.878906 277.410156 273.832031 L 289.148438 273.832031 C 289.203125 275.671875 289.613281 277.015625 290.351562 277.890625 C 291.148438 278.769531 292.164062 279.207031 293.425781 279.207031 C 294.660156 279.207031 295.671875 278.769531 296.496094 277.890625 C 297.292969 277.015625 297.703125 275.671875 297.703125 273.832031 Z M 297.703125 273.832031 " fill-opacity="1" fill-rule="nonzero"/><path fill="rgb(32.939148%, 90.19928%, 71.369934%)" d="M 350.746094 289.296875 L 348.113281 281.183594 L 330.671875 281.183594 L 327.929688 289.296875 L 315.425781 289.296875 L 332.210938 240.597656 L 346.578125 240.597656 L 363.46875 289.296875 Z M 333.636719 272.1875 L 345.152344 272.1875 L 339.339844 254.855469 Z M 333.636719 272.1875 " fill-opacity="1" fill-rule="nonzero"/><path fill="rgb(32.939148%, 90.19928%, 71.369934%)" d="M 383.9375 249.371094 C 382.457031 249.371094 381.25 249.785156 380.316406 250.578125 C 379.359375 251.402344 378.890625 252.527344 378.890625 253.980469 C 378.890625 255.460938 379.332031 256.667969 380.207031 257.597656 C 381.085938 258.476562 382.210938 259.191406 383.609375 259.683594 C 385.0625 260.121094 386.625 260.5625 388.324219 261 C 390.082031 261.4375 391.78125 261.988281 393.480469 262.644531 C 395.152344 263.246094 396.6875 264.015625 398.085938 264.949219 C 399.539062 265.824219 400.71875 267.113281 401.597656 268.789062 C 402.476562 270.488281 402.914062 272.488281 402.914062 274.820312 C 402.914062 278.933594 401.214844 282.441406 397.867188 285.351562 C 394.496094 288.285156 390.082031 289.738281 384.597656 289.738281 C 379.167969 289.738281 374.777344 288.476562 371.433594 285.898438 C 368.144531 283.265625 366.496094 279.507812 366.496094 274.601562 L 379 274.601562 C 379.359375 278.496094 381.359375 280.414062 385.035156 280.414062 C 386.707031 280.414062 388.023438 279.976562 388.984375 279.097656 C 389.914062 278.21875 390.410156 277.097656 390.410156 275.699219 C 390.410156 274.328125 389.96875 273.175781 389.09375 272.296875 C 388.214844 271.417969 387.0625 270.734375 385.691406 270.214844 C 384.292969 269.71875 382.730469 269.226562 380.976562 268.789062 C 379.277344 268.347656 377.574219 267.855469 375.820312 267.25 C 374.121094 266.59375 372.585938 265.824219 371.214844 264.949219 C 369.816406 264.015625 368.691406 262.699219 367.8125 261 C 366.9375 259.328125 366.496094 257.351562 366.496094 255.078125 C 366.496094 250.550781 368.171875 246.933594 371.542969 244.21875 C 374.886719 241.449219 379.167969 240.050781 384.375 240.050781 C 389.640625 240.050781 393.863281 241.253906 397.101562 243.667969 C 400.308594 246.027344 401.980469 249.757812 402.144531 254.855469 L 389.3125 254.855469 C 389.09375 253.101562 388.488281 251.757812 387.558594 250.796875 C 386.597656 249.867188 385.390625 249.371094 383.9375 249.371094 Z M 383.9375 249.371094 " fill-opacity="1" fill-rule="nonzero"/><path fill="rgb(32.939148%, 90.19928%, 71.369934%)" d="M 410.480469 240.816406 L 422.328125 240.816406 L 422.328125 289.296875 L 410.480469 289.296875 Z M 410.480469 240.816406 " fill-opacity="1" fill-rule="nonzero"/><path fill="rgb(32.939148%, 90.19928%, 71.369934%)" d="M 442.785156 270.433594 L 442.785156 289.296875 L 430.9375 289.296875 L 430.9375 240.816406 L 450.132812 240.816406 C 455.753906 240.816406 460.117188 242.296875 463.1875 245.203125 C 466.3125 248.054688 467.902344 251.539062 467.902344 255.625 C 467.902344 258.476562 467.054688 261.273438 465.378906 263.960938 C 463.679688 266.59375 460.910156 268.457031 457.042969 269.554688 L 468.890625 289.296875 L 455.070312 289.296875 L 444.210938 270.433594 Z M 442.785156 249.8125 L 442.785156 261.4375 L 450.132812 261.4375 C 451.890625 261.4375 453.261719 260.945312 454.300781 259.902344 C 455.398438 258.804688 455.945312 257.433594 455.945312 255.734375 C 455.945312 253.980469 455.398438 252.554688 454.300781 251.457031 C 453.261719 250.359375 451.890625 249.8125 450.132812 249.8125 Z M 442.785156 249.8125 " fill-opacity="1" fill-rule="nonzero"/><path fill="rgb(32.939148%, 90.19928%, 71.369934%)" d="M 475.390625 240.816406 L 487.234375 240.816406 L 487.234375 289.296875 L 475.390625 289.296875 Z M 475.390625 240.816406 " fill-opacity="1" fill-rule="nonzero"/><path stroke-linecap="round" transform="matrix(-5.029268, 0, 0, -5.265, 309.244089, 254.072441)" fill="none" stroke-linejoin="miter" d="M 0.499022 0.00188806 L 4.740599 0.00188806 " stroke="rgb(32.939148%, 90.19928%, 71.369934%)" stroke-width="1" stroke-opacity="1" stroke-miterlimit="4"/><path stroke-linecap="round" transform="matrix(-5.029268, 0, 0, -5.265, 309.244089, 242.335001)" fill="none" stroke-linejoin="miter" d="M 0.499022 0.001306 L 4.740599 0.001306 " stroke="rgb(32.939148%, 90.19928%, 71.369934%)" stroke-width="1" stroke-opacity="1" stroke-miterlimit="4"/><path fill="rgb(100%, 100%, 100%)" d="M 345.761719 320.226562 C 344.71875 320.226562 343.8125 320.035156 343.019531 319.679688 C 342.195312 319.324219 341.539062 318.746094 341.042969 317.925781 L 340.824219 317.925781 C 340.960938 318.800781 341.042969 319.652344 341.042969 320.449219 L 341.042969 326.699219 L 338.742188 326.699219 L 338.742188 304.871094 L 340.605469 304.871094 L 340.933594 306.957031 L 341.042969 306.957031 C 341.621094 306.078125 342.277344 305.476562 343.019531 305.089844 C 343.8125 304.734375 344.71875 304.542969 345.761719 304.542969 C 347.734375 304.542969 349.269531 305.253906 350.367188 306.625 C 351.464844 308.023438 352.011719 309.917969 352.011719 312.332031 C 352.011719 314.824219 351.464844 316.773438 350.367188 318.144531 C 349.269531 319.542969 347.734375 320.226562 345.761719 320.226562 Z M 345.429688 306.515625 C 343.894531 306.515625 342.742188 306.957031 342.03125 307.832031 C 341.371094 308.65625 341.042969 310 341.042969 311.890625 L 341.042969 312.332031 C 341.042969 314.46875 341.371094 316.003906 342.03125 316.9375 C 342.742188 317.816406 343.894531 318.253906 345.429688 318.253906 C 346.746094 318.253906 347.761719 317.761719 348.503906 316.71875 C 349.214844 315.621094 349.597656 314.167969 349.597656 312.332031 C 349.597656 310.4375 349.214844 309.011719 348.503906 308.050781 C 347.761719 307.039062 346.746094 306.515625 345.429688 306.515625 Z M 345.429688 306.515625 " fill-opacity="1" fill-rule="nonzero"/><path fill="rgb(100%, 100%, 100%)" d="M 362.855469 304.542969 C 363.515625 304.542969 364.089844 304.625 364.613281 304.761719 L 364.28125 306.847656 C 363.679688 306.710938 363.132812 306.625 362.636719 306.625 C 361.375 306.625 360.332031 307.148438 359.457031 308.164062 C 358.632812 309.121094 358.25 310.328125 358.25 311.78125 L 358.25 319.898438 L 355.945312 319.898438 L 355.945312 304.871094 L 357.8125 304.871094 L 358.140625 307.613281 L 358.25 307.613281 C 358.742188 306.679688 359.402344 305.941406 360.222656 305.421875 C 361.019531 304.84375 361.898438 304.542969 362.855469 304.542969 Z M 362.855469 304.542969 " fill-opacity="1" fill-rule="nonzero"/><path fill="rgb(100%, 100%, 100%)" d="M 380.351562 312.332031 C 380.351562 314.824219 379.722656 316.773438 378.488281 318.144531 C 377.308594 319.542969 375.636719 320.226562 373.441406 320.226562 C 372.042969 320.226562 370.835938 319.898438 369.824219 319.242188 C 368.78125 318.582031 367.984375 317.679688 367.410156 316.5 C 366.808594 315.347656 366.53125 313.949219 366.53125 312.332031 C 366.53125 309.917969 367.136719 308.023438 368.398438 306.625 C 369.632812 305.253906 371.359375 304.542969 373.550781 304.542969 C 375.582031 304.542969 377.226562 305.28125 378.488281 306.738281 C 379.722656 308.136719 380.351562 310 380.351562 312.332031 Z M 368.945312 312.332031 C 368.945312 314.304688 369.300781 315.8125 370.042969 316.828125 C 370.835938 317.789062 371.960938 318.253906 373.441406 318.253906 C 374.976562 318.253906 376.101562 317.789062 376.84375 316.828125 C 377.636719 315.8125 378.050781 314.304688 378.050781 312.332031 C 378.050781 310.4375 377.636719 309.011719 376.84375 308.050781 C 376.101562 307.039062 374.976562 306.515625 373.441406 306.515625 C 371.960938 306.515625 370.835938 307.039062 370.042969 308.050781 C 369.300781 309.011719 368.945312 310.4375 368.945312 312.332031 Z M 368.945312 312.332031 " fill-opacity="1" fill-rule="nonzero"/><path fill="rgb(100%, 100%, 100%)" d="M 389.195312 318.253906 C 389.636719 318.253906 390.019531 318.253906 390.402344 318.253906 C 390.757812 318.199219 391.0625 318.117188 391.28125 318.035156 L 391.28125 319.789062 C 391.0625 319.871094 390.675781 319.925781 390.183594 320.007812 C 389.746094 320.144531 389.304688 320.226562 388.867188 320.226562 C 386.015625 320.226562 384.589844 318.691406 384.589844 315.621094 L 384.589844 306.625 L 382.394531 306.625 L 382.394531 305.53125 L 384.589844 304.542969 L 385.46875 301.363281 L 386.785156 301.363281 L 386.785156 304.871094 L 391.171875 304.871094 L 391.171875 306.625 L 386.785156 306.625 L 386.785156 315.511719 C 386.785156 316.390625 387.003906 317.101562 387.441406 317.59375 C 387.878906 318.035156 388.457031 318.253906 389.195312 318.253906 Z M 389.195312 318.253906 " fill-opacity="1" fill-rule="nonzero"/><path fill="rgb(100%, 100%, 100%)" d="M 407.21875 312.332031 C 407.21875 314.824219 406.589844 316.773438 405.355469 318.144531 C 404.175781 319.542969 402.503906 320.226562 400.308594 320.226562 C 398.910156 320.226562 397.703125 319.898438 396.6875 319.242188 C 395.648438 318.582031 394.851562 317.679688 394.277344 316.5 C 393.671875 315.347656 393.398438 313.949219 393.398438 312.332031 C 393.398438 309.917969 394 308.023438 395.261719 306.625 C 396.496094 305.253906 398.222656 304.542969 400.417969 304.542969 C 402.449219 304.542969 404.09375 305.28125 405.355469 306.738281 C 406.589844 308.136719 407.21875 310 407.21875 312.332031 Z M 395.8125 312.332031 C 395.8125 314.304688 396.167969 315.8125 396.90625 316.828125 C 397.703125 317.789062 398.828125 318.253906 400.308594 318.253906 C 401.84375 318.253906 402.96875 317.789062 403.707031 316.828125 C 404.503906 315.8125 404.914062 314.304688 404.914062 312.332031 C 404.914062 310.4375 404.503906 309.011719 403.707031 308.050781 C 402.96875 307.039062 401.84375 306.515625 400.308594 306.515625 C 398.828125 306.515625 397.703125 307.039062 396.90625 308.050781 C 396.167969 309.011719 395.8125 310.4375 395.8125 312.332031 Z M 395.8125 312.332031 " fill-opacity="1" fill-rule="nonzero"/><path fill="rgb(100%, 100%, 100%)" d="M 417.277344 320.226562 C 415.082031 320.226562 413.355469 319.570312 412.121094 318.253906 C 410.941406 316.882812 410.367188 314.9375 410.367188 312.441406 C 410.367188 309.972656 410.96875 308.023438 412.230469 306.625 C 413.464844 305.253906 415.191406 304.542969 417.386719 304.542969 C 418.097656 304.542969 418.839844 304.652344 419.578125 304.871094 C 420.292969 305.035156 420.839844 305.199219 421.222656 305.421875 L 420.566406 307.285156 C 420.046875 307.066406 419.496094 306.929688 418.921875 306.847656 C 418.316406 306.710938 417.824219 306.625 417.386719 306.625 C 414.3125 306.625 412.777344 308.574219 412.777344 312.441406 C 412.777344 314.277344 413.136719 315.703125 413.875 316.71875 C 414.589844 317.679688 415.683594 318.144531 417.167969 318.144531 C 418.398438 318.144531 419.6875 317.898438 421.003906 317.375 L 421.003906 319.351562 C 420.046875 319.925781 418.8125 320.226562 417.277344 320.226562 Z M 417.277344 320.226562 " fill-opacity="1" fill-rule="nonzero"/><path fill="rgb(100%, 100%, 100%)" d="M 437.550781 312.332031 C 437.550781 314.824219 436.921875 316.773438 435.6875 318.144531 C 434.507812 319.542969 432.835938 320.226562 430.640625 320.226562 C 429.242188 320.226562 428.035156 319.898438 427.023438 319.242188 C 425.980469 318.582031 425.183594 317.679688 424.609375 316.5 C 424.003906 315.347656 423.730469 313.949219 423.730469 312.332031 C 423.730469 309.917969 424.335938 308.023438 425.597656 306.625 C 426.832031 305.253906 428.558594 304.542969 430.75 304.542969 C 432.78125 304.542969 434.425781 305.28125 435.6875 306.738281 C 436.921875 308.136719 437.550781 310 437.550781 312.332031 Z M 426.144531 312.332031 C 426.144531 314.304688 426.5 315.8125 427.242188 316.828125 C 428.035156 317.789062 429.160156 318.253906 430.640625 318.253906 C 432.175781 318.253906 433.300781 317.789062 434.042969 316.828125 C 434.835938 315.8125 435.25 314.304688 435.25 312.332031 C 435.25 310.4375 434.835938 309.011719 434.042969 308.050781 C 433.300781 307.039062 432.175781 306.515625 430.640625 306.515625 C 429.160156 306.515625 428.035156 307.039062 427.242188 308.050781 C 426.5 309.011719 426.144531 310.4375 426.144531 312.332031 Z M 426.144531 312.332031 " fill-opacity="1" fill-rule="nonzero"/><path fill="rgb(100%, 100%, 100%)" d="M 441.570312 298.511719 L 443.871094 298.511719 L 443.871094 319.898438 L 441.570312 319.898438 Z M 441.570312 298.511719 " fill-opacity="1" fill-rule="nonzero"/><g clip-path="url(#id1)"><path fill="rgb(32.939148%, 90.19928%, 71.369934%)" d="M 516.789062 223.023438 L 495.261719 223.023438 C 493.945312 223.023438 492.878906 224.089844 492.878906 225.40625 L 492.878906 246.933594 C 492.878906 248.277344 493.945312 249.347656 495.261719 249.347656 L 516.789062 249.347656 C 518.132812 249.347656 519.203125 248.277344 519.203125 246.933594 L 519.203125 225.40625 C 519.203125 224.089844 518.132812 223.023438 516.789062 223.023438 Z M 504.011719 233.332031 L 501.269531 233.332031 L 501.269531 240.957031 L 498.828125 240.957031 L 498.828125 233.332031 L 496.058594 233.332031 L 496.058594 231.386719 L 504.011719 231.386719 Z M 515.609375 240.957031 L 513.359375 240.957031 L 513.359375 234.921875 L 513.222656 234.921875 L 511.113281 240.214844 L 509.605469 240.214844 L 507.464844 234.921875 L 507.328125 234.921875 L 507.328125 240.957031 L 505.078125 240.957031 L 505.078125 231.386719 L 507.960938 231.386719 L 510.289062 237.226562 L 510.398438 237.226562 L 512.730469 231.386719 L 515.609375 231.386719 Z M 515.609375 240.957031 " fill-opacity="1" fill-rule="nonzero"/></g><path fill="rgb(100%, 100%, 100%)" d="M 440.203125 408.988281 L 445.117188 408.988281 L 445.117188 433.144531 L 440.203125 433.144531 Z M 440.203125 408.988281 " fill-opacity="1" fill-rule="nonzero"/><path fill="rgb(100%, 100%, 100%)" d="M 465.167969 416.855469 L 465.167969 433.199219 C 465.167969 438.273438 461.230469 441.390625 456.410156 441.390625 C 451.765625 441.390625 448.292969 438.5 447.960938 434.417969 L 452.859375 434.445312 C 453.058594 436.183594 454.582031 436.933594 456.585938 436.933594 C 458.480469 436.933594 460.242188 435.917969 460.242188 433.265625 L 460.242188 431.179688 C 458.988281 431.996094 457.386719 432.476562 455.597656 432.476562 C 451.113281 432.476562 447.519531 428.835938 447.519531 424.648438 C 447.519531 419.773438 451.125 416.507812 455.597656 416.507812 C 457.398438 416.507812 458.988281 416.992188 460.242188 417.808594 L 460.242188 416.921875 Z M 460.257812 426.480469 L 460.257812 422.503906 C 459.253906 421.046875 457.867188 420.5625 456.492188 420.5625 C 454.074219 420.5625 452.394531 422.183594 452.394531 424.648438 C 452.394531 426.453125 454.074219 428.433594 456.492188 428.433594 C 457.867188 428.421875 459.253906 427.925781 460.257812 426.480469 Z M 460.257812 426.480469 " fill-opacity="1" fill-rule="nonzero"/><path fill="rgb(100%, 100%, 100%)" d="M 484.765625 424.808594 C 484.765625 429.839844 481.054688 433.425781 476.074219 433.425781 C 471.054688 433.425781 467.34375 429.839844 467.34375 424.808594 C 467.34375 419.816406 471.054688 416.160156 476.074219 416.160156 C 481.054688 416.160156 484.765625 419.816406 484.765625 424.808594 Z M 480.027344 424.808594 C 480.027344 422.4375 478.476562 420.523438 476.074219 420.523438 C 473.644531 420.523438 472.097656 422.4375 472.097656 424.808594 C 472.097656 427.242188 473.644531 429.0625 476.074219 429.0625 C 478.464844 429.050781 480.027344 427.242188 480.027344 424.808594 Z M 480.027344 424.808594 " fill-opacity="1" fill-rule="nonzero"/><path fill="rgb(100%, 100%, 100%)" d="M 515.269531 416.882812 L 515.269531 433.121094 L 510.449219 433.144531 L 510.449219 432.222656 C 509.195312 433.039062 507.59375 433.546875 505.804688 433.546875 C 501.320312 433.546875 497.726562 429.734375 497.726562 425.035156 C 497.726562 420.308594 501.332031 416.496094 505.804688 416.496094 C 507.605469 416.496094 509.195312 417.003906 510.449219 417.820312 L 510.449219 416.898438 Z M 510.449219 427.523438 L 510.449219 422.546875 C 509.4375 421.101562 508.019531 420.699219 506.605469 420.699219 C 504.136719 420.699219 502.425781 422.679688 502.425781 425.046875 C 502.425781 427.390625 504.136719 429.371094 506.605469 429.371094 C 508.019531 429.359375 509.4375 428.96875 510.449219 427.523438 Z M 510.449219 427.523438 " fill-opacity="1" fill-rule="nonzero"/><path fill="rgb(100%, 100%, 100%)" d="M 535.082031 424.324219 L 535.082031 433.144531 L 530.339844 433.144531 L 530.339844 424.902344 C 530.339844 422.25 529.019531 420.84375 526.671875 420.84375 C 525.441406 420.84375 524.09375 421.554688 522.933594 422.921875 L 522.933594 433.144531 L 518.085938 433.144531 L 518.085938 416.910156 L 522.933594 416.910156 L 522.933594 418.140625 C 524.253906 417.085938 525.789062 416.507812 527.617188 416.507812 C 531.941406 416.507812 535.082031 419.5625 535.082031 424.324219 Z M 535.082031 424.324219 " fill-opacity="1" fill-rule="nonzero"/><path fill="rgb(100%, 100%, 100%)" d="M 437.960938 433.132812 L 432.957031 433.132812 L 429.699219 420.992188 L 422.691406 433.132812 L 417.097656 433.132812 L 427.910156 414.339844 L 426.175781 407.808594 L 411.582031 433.144531 L 405.988281 433.144531 L 424.480469 401.023438 L 429.378906 401.023438 L 431.527344 409 L 436.585938 409 L 433.128906 415.023438 Z M 437.960938 433.132812 " fill-opacity="1" fill-rule="nonzero"/><path fill="rgb(100%, 100%, 100%)" d="M 554.652344 408.988281 L 554.652344 433.144531 L 549.738281 433.144531 L 549.738281 432.222656 C 548.484375 433.039062 546.882812 433.546875 545.09375 433.546875 C 540.605469 433.546875 537.015625 429.734375 537.015625 425.007812 C 537.015625 420.308594 540.621094 416.496094 545.09375 416.496094 C 546.894531 416.496094 548.484375 417.003906 549.738281 417.820312 L 549.738281 408.972656 Z M 549.738281 427.539062 L 549.738281 422.519531 C 548.710938 421.058594 547.28125 420.65625 545.867188 420.65625 C 543.382812 420.65625 541.660156 422.652344 541.660156 425.007812 C 541.660156 427.402344 543.382812 429.398438 545.867188 429.398438 C 547.28125 429.398438 548.710938 428.996094 549.738281 427.539062 Z M 549.738281 427.539062 " fill-opacity="1" fill-rule="nonzero"/><path fill="rgb(100%, 100%, 100%)" d="M 496.847656 421.007812 C 495.777344 421.140625 493.269531 421.261719 491.800781 423.292969 L 491.800781 433.160156 L 486.957031 433.160156 L 486.957031 416.9375 L 491.800781 416.9375 L 491.800781 418.15625 C 492.910156 417.203125 494.578125 416.644531 496.847656 416.871094 Z M 496.847656 421.007812 " fill-opacity="1" fill-rule="nonzero"/><g fill="rgb(98.81897%, 100%, 100%)" fill-opacity="1"><g transform="translate(235.839951, 430.832618)"><g><path d="M 8.734375 0.25 C 7.828125 0.25 7 0.0820312 6.25 -0.25 C 5.5 -0.582031 4.867188 -1.097656 4.359375 -1.796875 L 4.203125 -1.796875 C 4.304688 -0.984375 4.359375 -0.210938 4.359375 0.515625 L 4.359375 6.265625 L 2.234375 6.265625 L 2.234375 -13.953125 L 3.953125 -13.953125 L 4.25 -12.046875 L 4.359375 -12.046875 C 4.898438 -12.804688 5.53125 -13.351562 6.25 -13.6875 C 6.96875 -14.03125 7.796875 -14.203125 8.734375 -14.203125 C 10.585938 -14.203125 12.015625 -13.570312 13.015625 -12.3125 C 14.023438 -11.050781 14.53125 -9.273438 14.53125 -6.984375 C 14.53125 -4.691406 14.015625 -2.910156 12.984375 -1.640625 C 11.960938 -0.378906 10.546875 0.25 8.734375 0.25 Z M 8.421875 -12.421875 C 7.003906 -12.421875 5.972656 -12.023438 5.328125 -11.234375 C 4.691406 -10.441406 4.367188 -9.1875 4.359375 -7.46875 L 4.359375 -6.984375 C 4.359375 -5.023438 4.679688 -3.625 5.328125 -2.78125 C 5.984375 -1.9375 7.035156 -1.515625 8.484375 -1.515625 C 9.679688 -1.515625 10.625 -2 11.3125 -2.96875 C 12 -3.945312 12.34375 -5.296875 12.34375 -7.015625 C 12.34375 -8.753906 12 -10.085938 11.3125 -11.015625 C 10.625 -11.953125 9.660156 -12.421875 8.421875 -12.421875 Z M 8.421875 -12.421875 "/></g></g></g><g fill="rgb(98.81897%, 100%, 100%)" fill-opacity="1"><g transform="translate(251.818054, 430.832618)"><g><path d="M 14.28125 -6.984375 C 14.28125 -4.710938 13.707031 -2.9375 12.5625 -1.65625 C 11.414062 -0.382812 9.832031 0.25 7.8125 0.25 C 6.570312 0.25 5.46875 -0.0390625 4.5 -0.625 C 3.53125 -1.207031 2.78125 -2.046875 2.25 -3.140625 C 1.726562 -4.234375 1.46875 -5.515625 1.46875 -6.984375 C 1.46875 -9.265625 2.035156 -11.035156 3.171875 -12.296875 C 4.304688 -13.566406 5.882812 -14.203125 7.90625 -14.203125 C 9.863281 -14.203125 11.414062 -13.550781 12.5625 -12.25 C 13.707031 -10.957031 14.28125 -9.203125 14.28125 -6.984375 Z M 3.65625 -6.984375 C 3.65625 -5.203125 4.007812 -3.84375 4.71875 -2.90625 C 5.4375 -1.976562 6.488281 -1.515625 7.875 -1.515625 C 9.25 -1.515625 10.296875 -1.976562 11.015625 -2.90625 C 11.734375 -3.832031 12.09375 -5.191406 12.09375 -6.984375 C 12.09375 -8.765625 11.734375 -10.113281 11.015625 -11.03125 C 10.296875 -11.957031 9.238281 -12.421875 7.84375 -12.421875 C 6.457031 -12.421875 5.410156 -11.960938 4.703125 -11.046875 C 4.003906 -10.140625 3.65625 -8.785156 3.65625 -6.984375 Z M 3.65625 -6.984375 "/></g></g></g><g fill="rgb(98.81897%, 100%, 100%)" fill-opacity="1"><g transform="translate(267.566989, 430.832618)"><g><path d="M 13.640625 0 L 11.078125 -8.1875 C 10.921875 -8.6875 10.617188 -9.820312 10.171875 -11.59375 L 10.078125 -11.59375 C 9.734375 -10.113281 9.4375 -8.96875 9.1875 -8.15625 L 6.546875 0 L 4.09375 0 L 0.296875 -13.953125 L 2.515625 -13.953125 C 3.410156 -10.453125 4.09375 -7.785156 4.5625 -5.953125 C 5.03125 -4.117188 5.300781 -2.878906 5.375 -2.234375 L 5.46875 -2.234375 C 5.5625 -2.722656 5.710938 -3.347656 5.921875 -4.109375 C 6.128906 -4.878906 6.3125 -5.492188 6.46875 -5.953125 L 9.03125 -13.953125 L 11.3125 -13.953125 L 13.8125 -5.953125 C 14.289062 -4.484375 14.613281 -3.253906 14.78125 -2.265625 L 14.890625 -2.265625 C 14.921875 -2.566406 15.007812 -3.035156 15.15625 -3.671875 C 15.300781 -4.316406 16.1875 -7.742188 17.8125 -13.953125 L 20 -13.953125 L 16.140625 0 Z M 13.640625 0 "/></g></g></g><g fill="rgb(98.81897%, 100%, 100%)" fill-opacity="1"><g transform="translate(287.848356, 430.832618)"><g><path d="M 8.140625 0.25 C 6.078125 0.25 4.445312 -0.375 3.25 -1.625 C 2.0625 -2.882812 1.46875 -4.628906 1.46875 -6.859375 C 1.46875 -9.109375 2.019531 -10.894531 3.125 -12.21875 C 4.226562 -13.539062 5.71875 -14.203125 7.59375 -14.203125 C 9.34375 -14.203125 10.722656 -13.628906 11.734375 -12.484375 C 12.753906 -11.335938 13.265625 -9.820312 13.265625 -7.9375 L 13.265625 -6.59375 L 3.65625 -6.59375 C 3.695312 -4.957031 4.109375 -3.710938 4.890625 -2.859375 C 5.679688 -2.015625 6.789062 -1.59375 8.21875 -1.59375 C 9.71875 -1.59375 11.203125 -1.90625 12.671875 -2.53125 L 12.671875 -0.65625 C 11.921875 -0.332031 11.210938 -0.101562 10.546875 0.03125 C 9.878906 0.175781 9.078125 0.25 8.140625 0.25 Z M 7.5625 -12.4375 C 6.445312 -12.4375 5.554688 -12.070312 4.890625 -11.34375 C 4.222656 -10.613281 3.828125 -9.601562 3.703125 -8.3125 L 11 -8.3125 C 11 -9.644531 10.703125 -10.664062 10.109375 -11.375 C 9.515625 -12.082031 8.664062 -12.4375 7.5625 -12.4375 Z M 7.5625 -12.4375 "/></g></g></g><g fill="rgb(98.81897%, 100%, 100%)" fill-opacity="1"><g transform="translate(302.476914, 430.832618)"><g><path d="M 8.609375 -14.203125 C 9.222656 -14.203125 9.78125 -14.15625 10.28125 -14.0625 L 9.984375 -12.09375 C 9.398438 -12.21875 8.890625 -12.28125 8.453125 -12.28125 C 7.328125 -12.28125 6.363281 -11.820312 5.5625 -10.90625 C 4.757812 -9.988281 4.359375 -8.847656 4.359375 -7.484375 L 4.359375 0 L 2.234375 0 L 2.234375 -13.953125 L 3.984375 -13.953125 L 4.234375 -11.375 L 4.328125 -11.375 C 4.847656 -12.28125 5.472656 -12.976562 6.203125 -13.46875 C 6.929688 -13.957031 7.734375 -14.203125 8.609375 -14.203125 Z M 8.609375 -14.203125 "/></g></g></g><g fill="rgb(98.81897%, 100%, 100%)" fill-opacity="1"><g transform="translate(313.120492, 430.832618)"><g><path d="M 8.140625 0.25 C 6.078125 0.25 4.445312 -0.375 3.25 -1.625 C 2.0625 -2.882812 1.46875 -4.628906 1.46875 -6.859375 C 1.46875 -9.109375 2.019531 -10.894531 3.125 -12.21875 C 4.226562 -13.539062 5.71875 -14.203125 7.59375 -14.203125 C 9.34375 -14.203125 10.722656 -13.628906 11.734375 -12.484375 C 12.753906 -11.335938 13.265625 -9.820312 13.265625 -7.9375 L 13.265625 -6.59375 L 3.65625 -6.59375 C 3.695312 -4.957031 4.109375 -3.710938 4.890625 -2.859375 C 5.679688 -2.015625 6.789062 -1.59375 8.21875 -1.59375 C 9.71875 -1.59375 11.203125 -1.90625 12.671875 -2.53125 L 12.671875 -0.65625 C 11.921875 -0.332031 11.210938 -0.101562 10.546875 0.03125 C 9.878906 0.175781 9.078125 0.25 8.140625 0.25 Z M 7.5625 -12.4375 C 6.445312 -12.4375 5.554688 -12.070312 4.890625 -11.34375 C 4.222656 -10.613281 3.828125 -9.601562 3.703125 -8.3125 L 11 -8.3125 C 11 -9.644531 10.703125 -10.664062 10.109375 -11.375 C 9.515625 -12.082031 8.664062 -12.4375 7.5625 -12.4375 Z M 7.5625 -12.4375 "/></g></g></g><g fill="rgb(98.81897%, 100%, 100%)" fill-opacity="1"><g transform="translate(327.74905, 430.832618)"><g><path d="M 11.734375 -1.875 L 11.625 -1.875 C 10.644531 -0.457031 9.1875 0.25 7.25 0.25 C 5.414062 0.25 3.992188 -0.367188 2.984375 -1.609375 C 1.972656 -2.859375 1.46875 -4.632812 1.46875 -6.9375 C 1.46875 -9.238281 1.972656 -11.023438 2.984375 -12.296875 C 4.003906 -13.566406 5.425781 -14.203125 7.25 -14.203125 C 9.132812 -14.203125 10.582031 -13.515625 11.59375 -12.140625 L 11.765625 -12.140625 L 11.671875 -13.15625 L 11.625 -14.140625 L 11.625 -19.8125 L 13.734375 -19.8125 L 13.734375 0 L 12.015625 0 Z M 7.515625 -1.515625 C 8.953125 -1.515625 9.992188 -1.90625 10.640625 -2.6875 C 11.296875 -3.476562 11.625 -4.75 11.625 -6.5 L 11.625 -6.9375 C 11.625 -8.914062 11.296875 -10.328125 10.640625 -11.171875 C 9.984375 -12.015625 8.929688 -12.4375 7.484375 -12.4375 C 6.242188 -12.4375 5.296875 -11.953125 4.640625 -10.984375 C 3.984375 -10.023438 3.65625 -8.671875 3.65625 -6.921875 C 3.65625 -5.128906 3.976562 -3.78125 4.625 -2.875 C 5.28125 -1.96875 6.242188 -1.515625 7.515625 -1.515625 Z M 7.515625 -1.515625 "/></g></g></g><g fill="rgb(98.81897%, 100%, 100%)" fill-opacity="1"><g transform="translate(343.727153, 430.832618)"><g/></g></g><g fill="rgb(98.81897%, 100%, 100%)" fill-opacity="1"><g transform="translate(350.500338, 430.832618)"><g><path d="M 8.734375 -14.1875 C 10.566406 -14.1875 11.988281 -13.554688 13 -12.296875 C 14.019531 -11.046875 14.53125 -9.273438 14.53125 -6.984375 C 14.53125 -4.691406 14.015625 -2.910156 12.984375 -1.640625 C 11.960938 -0.378906 10.546875 0.25 8.734375 0.25 C 7.828125 0.25 7 0.0820312 6.25 -0.25 C 5.5 -0.582031 4.867188 -1.097656 4.359375 -1.796875 L 4.203125 -1.796875 L 3.75 0 L 2.234375 0 L 2.234375 -19.8125 L 4.359375 -19.8125 L 4.359375 -15 C 4.359375 -13.925781 4.320312 -12.957031 4.25 -12.09375 L 4.359375 -12.09375 C 5.335938 -13.488281 6.796875 -14.1875 8.734375 -14.1875 Z M 8.421875 -12.421875 C 6.984375 -12.421875 5.945312 -12.003906 5.3125 -11.171875 C 4.675781 -10.347656 4.359375 -8.953125 4.359375 -6.984375 C 4.359375 -5.023438 4.679688 -3.625 5.328125 -2.78125 C 5.984375 -1.9375 7.035156 -1.515625 8.484375 -1.515625 C 9.773438 -1.515625 10.738281 -1.988281 11.375 -2.9375 C 12.019531 -3.882812 12.34375 -5.242188 12.34375 -7.015625 C 12.34375 -8.828125 12.019531 -10.179688 11.375 -11.078125 C 10.738281 -11.972656 9.753906 -12.421875 8.421875 -12.421875 Z M 8.421875 -12.421875 "/></g></g></g><g fill="rgb(98.81897%, 100%, 100%)" fill-opacity="1"><g transform="translate(366.478441, 430.832618)"><g><path d="M 0.03125 -13.953125 L 2.296875 -13.953125 L 5.34375 -6 C 6.019531 -4.175781 6.4375 -2.863281 6.59375 -2.0625 L 6.703125 -2.0625 C 6.804688 -2.5 7.035156 -3.238281 7.390625 -4.28125 C 7.742188 -5.332031 8.894531 -8.554688 10.84375 -13.953125 L 13.109375 -13.953125 L 7.125 1.9375 C 6.53125 3.507812 5.832031 4.625 5.03125 5.28125 C 4.238281 5.9375 3.265625 6.265625 2.109375 6.265625 C 1.460938 6.265625 0.828125 6.191406 0.203125 6.046875 L 0.203125 4.359375 C 0.671875 4.453125 1.191406 4.5 1.765625 4.5 C 3.222656 4.5 4.257812 3.6875 4.875 2.0625 L 5.65625 0.078125 Z M 0.03125 -13.953125 "/></g></g></g><g fill="rgb(98.81897%, 100%, 100%)" fill-opacity="1"><g transform="translate(379.617402, 430.832618)"><g><path d="M 1.9375 -1.34375 C 1.9375 -1.914062 2.066406 -2.347656 2.328125 -2.640625 C 2.585938 -2.929688 2.957031 -3.078125 3.4375 -3.078125 C 3.925781 -3.078125 4.304688 -2.929688 4.578125 -2.640625 C 4.859375 -2.347656 5 -1.914062 5 -1.34375 C 5 -0.789062 4.859375 -0.363281 4.578125 -0.0625 C 4.296875 0.226562 3.914062 0.375 3.4375 0.375 C 3 0.375 2.640625 0.238281 2.359375 -0.03125 C 2.078125 -0.300781 1.9375 -0.738281 1.9375 -1.34375 Z M 1.9375 -12.59375 C 1.9375 -13.738281 2.4375 -14.3125 3.4375 -14.3125 C 4.476562 -14.3125 5 -13.738281 5 -12.59375 C 5 -12.039062 4.859375 -11.613281 4.578125 -11.3125 C 4.296875 -11.019531 3.914062 -10.875 3.4375 -10.875 C 3 -10.875 2.640625 -11.003906 2.359375 -11.265625 C 2.078125 -11.535156 1.9375 -11.976562 1.9375 -12.59375 Z M 1.9375 -12.59375 "/></g></g></g></svg>