<svg xmlns="http://www.w3.org/2000/svg" width="75" viewBox="0 0 75 75" height="75" version="1.0"><g fill="#181919"><g><g><path d="M 2.640625 -1.828125 L 2.640625 -5.75 L 4.046875 -5.75 L 4.046875 -1.828125 C 4.046875 -1.234375 3.863281 -0.769531 3.5 -0.4375 C 3.144531 -0.101562 2.6875 0.0625 2.125 0.0625 C 1.570312 0.0625 1.117188 -0.101562 0.765625 -0.4375 C 0.410156 -0.769531 0.234375 -1.234375 0.234375 -1.828125 L 1.625 -1.828125 C 1.632812 -1.609375 1.6875 -1.445312 1.78125 -1.34375 C 1.875 -1.25 1.992188 -1.203125 2.140625 -1.203125 C 2.285156 -1.203125 2.40625 -1.25 2.5 -1.34375 C 2.59375 -1.445312 2.640625 -1.609375 2.640625 -1.828125 Z M 2.640625 -1.828125" transform="translate(31.252 39.218)"/></g></g></g><g fill="#181919"><g><g><path d="M 2.5625 -4.71875 C 2.382812 -4.71875 2.238281 -4.671875 2.125 -4.578125 C 2.019531 -4.492188 1.96875 -4.363281 1.96875 -4.1875 C 1.96875 -4.007812 2.019531 -3.867188 2.125 -3.765625 C 2.226562 -3.660156 2.363281 -3.578125 2.53125 -3.515625 C 2.695312 -3.460938 2.878906 -3.410156 3.078125 -3.359375 C 3.285156 -3.304688 3.488281 -3.238281 3.6875 -3.15625 C 3.894531 -3.082031 4.082031 -2.988281 4.25 -2.875 C 4.414062 -2.769531 4.550781 -2.617188 4.65625 -2.421875 C 4.757812 -2.222656 4.8125 -1.988281 4.8125 -1.71875 C 4.8125 -1.226562 4.613281 -0.804688 4.21875 -0.453125 C 3.820312 -0.109375 3.296875 0.0625 2.640625 0.0625 C 1.992188 0.0625 1.472656 -0.09375 1.078125 -0.40625 C 0.679688 -0.71875 0.484375 -1.160156 0.484375 -1.734375 L 1.984375 -1.734375 C 2.015625 -1.273438 2.25 -1.046875 2.6875 -1.046875 C 2.882812 -1.046875 3.039062 -1.097656 3.15625 -1.203125 C 3.269531 -1.316406 3.328125 -1.453125 3.328125 -1.609375 C 3.328125 -1.773438 3.273438 -1.910156 3.171875 -2.015625 C 3.066406 -2.117188 2.929688 -2.195312 2.765625 -2.25 C 2.597656 -2.3125 2.410156 -2.367188 2.203125 -2.421875 C 2.003906 -2.472656 1.800781 -2.535156 1.59375 -2.609375 C 1.394531 -2.691406 1.210938 -2.785156 1.046875 -2.890625 C 0.878906 -2.992188 0.742188 -3.144531 0.640625 -3.34375 C 0.535156 -3.550781 0.484375 -3.789062 0.484375 -4.0625 C 0.484375 -4.59375 0.679688 -5.019531 1.078125 -5.34375 C 1.484375 -5.664062 1.992188 -5.828125 2.609375 -5.828125 C 3.234375 -5.828125 3.734375 -5.6875 4.109375 -5.40625 C 4.492188 -5.125 4.695312 -4.679688 4.71875 -4.078125 L 3.1875 -4.078125 C 3.164062 -4.285156 3.097656 -4.441406 2.984375 -4.546875 C 2.878906 -4.660156 2.738281 -4.71875 2.5625 -4.71875 Z M 2.5625 -4.71875" transform="translate(35.907 39.218)"/></g></g></g><g fill="#181919"><g><g><path d="M 2.015625 -2.234375 L 2.015625 0 L 0.609375 0 L 0.609375 -5.75 L 2.875 -5.75 C 3.539062 -5.75 4.0625 -5.578125 4.4375 -5.234375 C 4.8125 -4.890625 5 -4.472656 5 -3.984375 C 5 -3.648438 4.894531 -3.320312 4.6875 -3 C 4.488281 -2.6875 4.160156 -2.46875 3.703125 -2.34375 L 5.109375 0 L 3.46875 0 L 2.171875 -2.234375 Z M 2.015625 -4.6875 L 2.015625 -3.296875 L 2.875 -3.296875 C 3.09375 -3.296875 3.257812 -3.359375 3.375 -3.484375 C 3.5 -3.609375 3.5625 -3.773438 3.5625 -3.984375 C 3.5625 -4.191406 3.5 -4.359375 3.375 -4.484375 C 3.25 -4.617188 3.082031 -4.6875 2.875 -4.6875 Z M 2.015625 -4.6875" transform="translate(40.996 39.218)"/></g></g></g><path stroke-linecap="round" transform="matrix(-.76433 0 0 -.75 35.376 35.428)" fill="none" d="M 0.497567 -0.00159044 L 4.417457 -0.00159044" stroke="#181919"/><path stroke-linecap="round" transform="matrix(-.76433 0 0 -.75 35.376 33.662)" fill="none" d="M 0.497567 0.00180811 L 4.417457 0.00180811" stroke="#181919"/></svg>